<?xml version="1.0" encoding="UTF-8"?>
<svg id="Layer_1" data-name="Layer 1" xmlns="http://www.w3.org/2000/svg" viewBox="0 0 210.99 210.99">
  <path d="M179.41,0H31.58C14.14,0,0,14.14,0,31.58v147.83c0,17.44,14.14,31.58,31.58,31.58h147.83c17.44,0,31.58-14.14,31.58-31.58V31.58c0-17.44-14.14-31.58-31.58-31.58ZM205.2,173.62c0,17.44-14.14,31.58-31.58,31.58H37.37c-17.44,0-31.58-14.14-31.58-31.58V37.37c0-17.44,14.14-31.58,31.58-31.58h136.25c17.44,0,31.58,14.14,31.58,31.58v136.25Z" fill="#ff4d00"/>
  <g>
    <path d="M18.55,71.66v-17.04h4.23v6.22h9.07v3.84h-9.07v6.97c0,2.35,1.21,3.27,2.95,3.27s2.95-.89,2.95-3.27v-.46h4.23v.46c0,4.87-2.92,7.22-7.18,7.22s-7.19-2.35-7.19-7.22Z" fill="#231f20"/>
    <path d="M34.91,69.63c0-5.34,3.91-9.25,9.46-9.25s9.39,3.91,9.39,9.25v1.49h-14.41c.57,2.56,2.53,3.91,5.02,3.91,1.89,0,3.27-.53,4.16-1.67h4.52c-1.32,3.34-4.52,5.51-8.68,5.51-5.55,0-9.46-3.91-9.46-9.25ZM49.28,67.75c-.68-2.35-2.6-3.52-4.91-3.52s-4.23,1.21-4.91,3.52h9.82Z" fill="#231f20"/>
    <path d="M57.14,53.17h4.23v25.25h-4.23v-25.25Z" fill="#231f20"/>
    <path d="M64.75,69.63c0-5.34,3.91-9.25,9.46-9.25s9.39,3.91,9.39,9.25v1.49h-14.41c.57,2.56,2.53,3.91,5.02,3.91,1.89,0,3.27-.53,4.16-1.67h4.52c-1.32,3.34-4.52,5.51-8.68,5.51-5.55,0-9.46-3.91-9.46-9.25ZM79.12,67.75c-.68-2.35-2.6-3.52-4.91-3.52s-4.23,1.21-4.91,3.52h9.82Z" fill="#231f20"/>
    <path d="M86.37,68.39c0-5.51,3.2-8,7.36-8,2.63,0,4.8,1.1,6.08,3.17,1.25-2.06,3.41-3.17,6.08-3.17,4.16,0,7.36,2.49,7.36,8v10.03h-4.23v-10.03c0-2.88-1.49-4.05-3.56-4.05s-3.52,1.21-3.52,4.05v10.03h-4.23v-10.03c0-2.85-1.53-4.05-3.56-4.05s-3.56,1.17-3.56,4.05v10.03h-4.23v-10.03Z" fill="#231f20"/>
    <path d="M116.03,69.63c0-5.34,3.91-9.25,9.46-9.25s9.46,3.91,9.46,9.25-3.91,9.25-9.46,9.25-9.46-3.91-9.46-9.25ZM130.65,69.63c0-3.09-2.06-5.3-5.16-5.3s-5.19,2.21-5.19,5.3,2.1,5.3,5.19,5.3,5.16-2.21,5.16-5.3Z" fill="#231f20"/>
    <path d="M137.72,68.21c0-5.3,3.13-7.83,7.72-7.83s7.68,2.53,7.68,7.9v.11h-4.2v-.18c0-2.85-1.42-3.88-3.49-3.88s-3.49,1.03-3.49,3.88v10.21h-4.23v-10.21Z" fill="#231f20"/>
    <path d="M155.39,69.78c0-5.69,3.84-9.39,9.35-9.39s9.5,3.84,9.5,9.43c0,6.01-4.48,9.07-8.75,9.07-2.52,0-4.62-1.07-5.87-3.02v10.07h-4.23v-16.15ZM169.98,69.63c0-3.09-2.1-5.3-5.19-5.3s-5.16,2.21-5.16,5.3,2.06,5.3,5.16,5.3,5.19-2.21,5.19-5.3Z" fill="#231f20"/>
    <path d="M177.58,53.17h4.23v10.14c1.17-1.88,2.99-2.92,5.23-2.92,4.05,0,7.9,2.63,7.9,8.89v9.14h-4.23v-9.14c0-3.34-1.78-4.94-4.45-4.94s-4.45,1.67-4.45,4.94v9.14h-4.23v-25.25Z" fill="#231f20"/>
  </g>
  <g>
    <path d="M19.88,90.84h11.15c7.22,0,11.71,3.39,11.71,10.95s-5.69,11.38-12.88,11.38v4.29h-9.98v-26.62ZM33.03,101.76c0-1.6-1.9-1.96-3.16-1.96v4.56c1.63-.1,3.16-.7,3.16-2.6Z" fill="#231f20"/>
    <path d="M44.41,90.84h11.95c5.96,0,10.88,3.23,10.88,9.62,0,3.53-2.06,6.82-5.62,7.65l.2.2h7.89v-17.47h9.75v26.62h-18.2c-1.86,0-3.06-1-4.29-2.3l-2.76-2.9v5.19h-9.78v-26.62ZM57.49,101.46c0-1.63-2.03-2-3.29-2v4.56c1.56-.1,3.29-.7,3.29-2.56Z" fill="#231f20"/>
    <path d="M82.12,90.84h10.52l3.79,6.46,3.23-6.46h10.52v26.62h-9.75v-7.52l-4.33,7.19-4.23-7.19v7.52h-9.75v-26.62Z" fill="#231f20"/>
    <path d="M112.51,90.84h17.31v9.45h-7.55v1.43h5.89v5.16h-5.92v1.43h7.59v9.15h-17.31v-26.62Z" fill="#231f20"/>
  </g>
  <rect x="104.85" y="122.64" width="24" height="58.37" fill="#ed1c24"/>
  <rect x="135.85" y="89.9" width="24" height="91.11" fill="#00aeef"/>
  <rect x="166.85" y="89.9" width="24" height="91.11" fill="#ff4d00"/>
</svg>