<?xml version="1.0" encoding="UTF-8"?>
<svg xmlns="http://www.w3.org/2000/svg" viewBox="0 0 290.29 160.05">
  <g id="Layer_3" data-name="Layer 3">
    <rect x="82.07" y="74.22" width="10.47" height="59.89" fill="#ed1c24"/>
    <rect x="69.33" y="90.26" width="10.47" height="43.27" fill="#f7941d"/>
    <rect x="56.59" y="110.76" width="10.47" height="24.19" fill="#fff200"/>
  </g>
  <g id="Layer_1" data-name="Layer 1">
    <path d="M206.33,128.12c-47.48,49.87-187.96,13.76-197.4-27.9C2.24,70.72,59.41,30.45,112.18,19.38c17.08-3.58,65.89-13.83,94.15,12.69,12.44,11.68,18.26,28.02,18.64,44.59.5-20.71-5.45-41.58-19.37-56.17C176.26-10.29,125.55,1.6,107.81,5.76,53,18.61-6.39,65.34.56,99.57c9.81,48.35,155.73,90.25,205.05,32.38,5.68-6.67,10.22-14.85,13.49-23.82-3.13,7.53-7.42,14.39-12.76,20Z" fill="#00aeef"/>
    <g>
      <path d="M97.74,64.78c0-3.15,2.31-5.46,5.58-5.46s5.58,2.31,5.58,5.46-2.31,5.46-5.58,5.46-5.58-2.31-5.58-5.46ZM106.37,64.78c0-1.83-1.22-3.13-3.04-3.13s-3.07,1.3-3.07,3.13,1.24,3.13,3.07,3.13,3.04-1.3,3.04-3.13Z" fill="#ed1c24"/>
      <path d="M110.55,64.86c0-3.36,2.27-5.54,5.52-5.54s5.61,2.27,5.61,5.56c0,3.55-2.65,5.35-5.17,5.35-1.49,0-2.73-.63-3.46-1.78v5.94h-2.5v-9.53ZM119.16,64.78c0-1.83-1.24-3.13-3.07-3.13s-3.04,1.3-3.04,3.13,1.22,3.13,3.04,3.13,3.07-1.3,3.07-3.13Z" fill="#ed1c24"/>
      <path d="M122.9,64.78c0-3.15,2.31-5.46,5.58-5.46s5.54,2.31,5.54,5.46v.88h-8.5c.34,1.51,1.49,2.31,2.96,2.31,1.11,0,1.93-.31,2.46-.99h2.67c-.78,1.97-2.67,3.25-5.12,3.25-3.28,0-5.58-2.31-5.58-5.46ZM131.38,63.66c-.4-1.39-1.53-2.08-2.9-2.08s-2.5.71-2.9,2.08h5.79Z" fill="#ed1c24"/>
      <path d="M135.67,64.57c0-3.46,2.06-5.25,5.12-5.25s5.12,1.76,5.12,5.25v5.4h-2.5v-5.4c0-1.97-1.05-2.92-2.62-2.92s-2.62.94-2.62,2.92v5.4h-2.5v-5.4Z" fill="#ed1c24"/>
    </g>
  </g>
  <g id="Layer_2" data-name="Layer 2">
    <g>
      <path d="M98.24,94.36v-18.55h4.61v6.78h9.88v4.18h-9.88v7.59c0,2.56,1.32,3.56,3.21,3.56s3.21-.97,3.21-3.56v-.5h4.61v.5c0,5.31-3.18,7.86-7.82,7.86s-7.82-2.56-7.82-7.86Z" fill="#00aeef"/>
      <path d="M116.05,92.15c0-5.81,4.26-10.07,10.3-10.07s10.22,4.26,10.22,10.07v1.63h-15.68c.62,2.79,2.75,4.26,5.46,4.26,2.05,0,3.56-.58,4.53-1.82h4.92c-1.43,3.64-4.92,6-9.45,6-6.04,0-10.3-4.26-10.3-10.07ZM131.7,90.1c-.74-2.56-2.83-3.83-5.34-3.83s-4.61,1.32-5.34,3.83h10.69Z" fill="#00aeef"/>
      <path d="M140.25,74.22h4.61v27.5h-4.61v-27.5Z" fill="#00aeef"/>
      <path d="M148.54,92.15c0-5.81,4.26-10.07,10.3-10.07s10.22,4.26,10.22,10.07v1.63h-15.68c.62,2.79,2.75,4.26,5.46,4.26,2.05,0,3.56-.58,4.53-1.82h4.92c-1.43,3.64-4.92,6-9.45,6-6.04,0-10.3-4.26-10.3-10.07ZM164.18,90.1c-.74-2.56-2.83-3.83-5.34-3.83s-4.61,1.32-5.34,3.83h10.69Z" fill="#00aeef"/>
      <path d="M172.08,90.79c0-6,3.49-8.71,8.02-8.71,2.87,0,5.23,1.2,6.62,3.45,1.36-2.25,3.72-3.45,6.62-3.45,4.53,0,8.02,2.71,8.02,8.71v10.92h-4.61v-10.92c0-3.14-1.63-4.42-3.87-4.42s-3.83,1.32-3.83,4.42v10.92h-4.61v-10.92c0-3.1-1.67-4.42-3.87-4.42s-3.87,1.28-3.87,4.42v10.92h-4.61v-10.92Z" fill="#00aeef"/>
      <path d="M204.37,92.15c0-5.81,4.26-10.07,10.3-10.07s10.3,4.26,10.3,10.07-4.26,10.07-10.3,10.07-10.3-4.26-10.3-10.07ZM220.29,92.15c0-3.37-2.25-5.77-5.62-5.77s-5.65,2.4-5.65,5.77,2.29,5.77,5.65,5.77,5.62-2.4,5.62-5.77Z" fill="#00aeef"/>
      <path d="M227.99,90.6c0-5.77,3.41-8.52,8.4-8.52s8.37,2.75,8.37,8.6v.12h-4.57v-.19c0-3.1-1.55-4.22-3.79-4.22s-3.79,1.12-3.79,4.22v11.11h-4.61v-11.11Z" fill="#00aeef"/>
      <path d="M247.23,92.3c0-6.2,4.18-10.22,10.19-10.22s10.34,4.18,10.34,10.26c0,6.54-4.88,9.88-9.53,9.88-2.75,0-5.04-1.16-6.39-3.29v10.96h-4.61v-17.58ZM263.11,92.15c0-3.37-2.28-5.77-5.65-5.77s-5.62,2.4-5.62,5.77,2.25,5.77,5.62,5.77,5.65-2.4,5.65-5.77Z" fill="#00aeef"/>
      <path d="M271.39,74.22h4.61v11.04c1.28-2.05,3.25-3.18,5.69-3.18,4.42,0,8.6,2.87,8.6,9.68v9.95h-4.61v-9.95c0-3.64-1.94-5.38-4.84-5.38s-4.84,1.82-4.84,5.38v9.95h-4.61v-27.5Z" fill="#00aeef"/>
    </g>
    <g>
      <path d="M97.14,116.34c0-6.23,4.26-10.22,10.19-10.22s10.34,4.18,10.34,10.19c0,6.35-4.72,9.95-9.72,9.95-3.1,0-5.73-1.39-7.13-3.87v11.54h-3.68v-17.58ZM113.94,116.19c0-3.87-2.63-6.66-6.58-6.66s-6.54,2.79-6.54,6.66,2.63,6.66,6.54,6.66,6.58-2.79,6.58-6.66Z" fill="#00aeef"/>
      <path d="M120.68,114.49c0-5.65,3.33-8.36,8.25-8.36s8.21,2.71,8.21,8.4v.19h-3.64v-.23c0-3.52-1.86-4.96-4.57-4.96s-4.57,1.43-4.57,4.96v11.27h-3.68v-11.27Z" fill="#00aeef"/>
      <path d="M140.35,106.62h3.68v19.13h-3.68v-19.13Z" fill="#00aeef"/>
      <path d="M148.48,114.68c0-5.85,3.41-8.56,7.9-8.56,2.94,0,5.42,1.32,6.74,3.79,1.32-2.48,3.76-3.79,6.74-3.79,4.49,0,7.9,2.71,7.9,8.56v11.08h-3.68v-11.08c0-3.56-1.9-5.15-4.57-5.15s-4.53,1.67-4.53,5.15v11.08h-3.68v-11.08c0-3.49-1.97-5.15-4.57-5.15s-4.57,1.59-4.57,5.15v11.08h-3.68v-11.08Z" fill="#00aeef"/>
      <path d="M180.77,116.19c0-5.81,4.26-10.07,10.3-10.07s10.22,4.26,10.22,10.07v1.36h-16.65c.54,3.41,3.1,5.31,6.43,5.31,2.48,0,4.22-.77,5.34-2.44h4.07c-1.47,3.56-4.96,5.85-9.41,5.85-6.04,0-10.3-4.26-10.3-10.07ZM197.42,114.25c-.74-3.06-3.25-4.72-6.35-4.72s-5.58,1.7-6.31,4.72h12.66Z" fill="#00aeef"/>
    </g>
  </g>
</svg>